<svg xmlns="http://www.w3.org/2000/svg" width="1791.999" height="1791.999" fill-rule="evenodd" clip-rule="evenodd" image-rendering="optimizeQuality" shape-rendering="geometricPrecision" text-rendering="geometricPrecision" viewBox="0 0 47413.32 47413.32"><rect width="47413.32" height="47413.32" fill="none"/><path fill="#664624" fill-rule="nonzero" d="M23298.57 45846.59l0 -1362.72 -2178.4 0c0,0 -1699.45,-133.73 -1944.67,266.1 -140.64,228.06 -87.58,1096.62 -87.58,1096.62l4210.65 0z"/><polygon fill="#9d764b" fill-rule="nonzero" points="19076.09 45839.57 23304.38 45839.57 23304.38 45493.95 19076.09 45493.95"/><path fill="#664624" fill-rule="nonzero" d="M25097.27 45846.59l0 -1362.72 2178.36 0c0,0 1699.45,-133.73 1944.71,266.1 140.75,228.06 87.68,1096.62 87.68,1096.62l-4210.75 0z"/><polygon fill="#9d764b" fill-rule="nonzero" points="25091.35 45839.57 29319.75 45839.57 29319.75 45493.95 25091.35 45493.95"/><path fill="#664624" fill-rule="nonzero" d="M32919.07 22055.36l1429.9 240.71 470.61 385.75 746.66 765.81c0,0 -1258.68,425.15 -1896.53,83.05 -636.6,-340.66 -954.19,-784.11 -954.19,-784.11l203.55 -691.21z"/><path fill="#1e7dac" fill-rule="nonzero" d="M32299.38 22545.26l760.92 -1193.78 -2705.45 -3280.09 -1181.55 -5236.9c-106.42,-964.32 -777.79,-1420.45 -1096.36,-1333.17l-849.75 547.63c-318.98,87.28 255.67,2249.62 315.64,2617.03l1262.21 4751.22 3494.34 3128.06z"/><polygon fill="#155f84" fill-rule="nonzero" points="32629.93 23028.14 33515.43 21673.84 32829.55 21071.34 31898.74 22428.4"/><path fill="#1e7dac" fill-rule="nonzero" d="M14237.63 18749.92l-189.22 -1029.08 4020.18 0 1102.28 -4886.35c106.53,-964.32 777.64,-1420.45 1096.36,-1333.17l849.71 547.63c318.87,87.28 -255.63,2249.62 -315.6,2617.03l-1262.07 4751.22 -5301.64 -667.28z"/><path fill="#132e42" fill-rule="nonzero" d="M20448.11 23422.31c0,0 -190.32,4822.99 -190.32,6205.41 0,1383.85 567.62,14858.99 567.62,14858.99l2472.72 0 794.84 -16125.98 219.9 0 784.96 16125.98 2472.76 0c0,0 566.33,-13372.39 566.33,-14797.03 0,-1423.25 -189.22,-6267.37 -189.22,-6267.37l-7499.59 0z"/><path fill="#fff" fill-rule="nonzero" d="M25629.83 14625.15l-2769.94 0 0 -3227.98c0,0 472.18,681.36 1331.34,681.36 859,0 1438.6,-806.67 1438.6,-806.67l0 3353.29z"/><polygon fill="#664624" fill-rule="nonzero" points="27953.2 23422.31 20445.72 23422.31 20411.8 24373.95 27983.74 24373.95"/><polygon fill="#bdbdbd" fill-rule="nonzero" points="37111.71 20737.7 36975.56 20409.68 36521.86 20242.14 36342.78 20439.26 36231.43 21143.11 37005.4 21428.91"/><path fill="#132e42" fill-rule="nonzero" d="M36303.94 26392.67l-2841.72 -1048.77c-184,-67.58 -278.74,-273.12 -211.3,-458.96l1556.97 -4217.66c68.68,-185.8 273.52,-280.14 458.92,-211.16l2840.47 1047.38c185.39,68.97 279.98,274.51 211.3,458.95l-1557.01 4219.06c-67.29,184.41 -273.52,278.74 -457.63,211.16z"/><polygon fill="#e7f6fd" fill-rule="nonzero" points="36469.89 26147.74 33494.6 25049.69 35099.57 20699.66 38074.9 21797.76"/><polygon fill="#d9d9d9" fill-rule="nonzero" points="37022.16 21434.53 36230 21141.72 35930.57 21160.02 35829.51 21434.53 37119.43 21910.35 37220.53 21635.84"/><polygon fill="#d9d9d9" fill-rule="nonzero" points="37421.54 20426.58 36966.41 20257.65 36635.89 20454.73 36231.43 21143.11 37009.22 21430.3 37418.86 20726.42"/><polygon fill="#a5dff9" fill-rule="nonzero" points="37376.08 22650.84 35076.34 21803.38 35120.26 21685.12 37420.29 22533.98"/><polygon fill="#a5dff9" fill-rule="nonzero" points="37171.25 23206.93 34871.39 22358.03 34915.57 22239.77 37215.31 23088.67"/><polygon fill="#a5dff9" fill-rule="nonzero" points="36978.09 23730.59 34678.24 22881.74 34722.3 22763.48 37022.16 23612.34"/><polygon fill="#a5dff9" fill-rule="nonzero" points="36774.54 24283.84 34474.8 23434.95 34517.47 23316.73 36818.75 24165.58"/><polygon fill="#a5dff9" fill-rule="nonzero" points="36594.36 24769.51 34294.47 23920.65 34338.54 23802.39 36638.42 24651.26"/><polygon fill="#a5dff9" fill-rule="nonzero" points="36383.06 25345.29 34083.17 24496.43 34125.98 24378.18 36425.83 25227.04"/><polygon fill="#ff5956" fill-rule="nonzero" points="37020.91 22179.25 35449.67 21599.24 35493.77 21482.41 37063.68 22060.99"/><polygon fill="#ff5956" fill-rule="nonzero" points="36336.46 25663.47 34766.37 25083.46 34809.14 24965.2 36380.52 25545.21"/><polygon fill="#ff5956" fill-rule="nonzero" points="36572.39 25024.33 35532.62 24640.01 35576.68 24521.75 36616.45 24906.07"/><polygon fill="#132e42" fill-rule="nonzero" points="25847.02 24373.95 26183.86 24373.95 26183.86 23421.83 25847.02 23421.83"/><path fill-rule="nonzero" d="M26874.55 5523.97c0,1690.71 -1201.65,3063.28 -2683.62,3063.28 -1482.08,0 -2683.47,-1372.57 -2683.47,-3063.28 0,-1692.13 1201.39,-3063.31 2683.47,-3063.31 1481.97,0 2683.62,1371.18 2683.62,3063.31z"/><path fill="#664624" fill-rule="nonzero" d="M24189.94 12236.19c1414.09,0 1028.82,-702.5 1230.98,-1113.53l-321.41 -2000.46 -1824.32 0c0,0 -261.29,1537.28 -322.25,2006.08 148.54,439.22 -177.1,1107.91 1237,1107.91z"/><path fill="#815932" fill-rule="nonzero" d="M26695.77 6299.63c0,1925.82 -440.22,3993.83 -2508.37,3993.83 -2068.15,0 -2508.33,-2068.01 -2508.33,-3993.83 0,-1927.22 1089.31,-2732.46 2474.86,-2732.46 1385.1,0 2541.84,805.24 2541.84,2732.46z"/><path fill="#815932" fill-rule="nonzero" d="M22309.33 6954.24c0 395.6-281.43 716.56-628.55 716.56-347.32 0-628.59-320.96-628.59-716.56 0-394.17 281.27-715.13 628.59-715.13 347.12 0 628.55 320.96 628.55 715.13zM27352.21 6954.24c0 395.6-281.27 716.56-628.7 716.56-347.16 0-628.44-320.96-628.44-716.56 0-394.17 281.28-715.13 628.44-715.13 347.43 0 628.7 320.96 628.7 715.13z"/><path fill="#9d744b" fill-rule="nonzero" d="M23539.57 6827.56l-1206.03 0c-184.55 0-335.62-152.06-335.62-336.47l0-503.97c0-184.44 151.07-335.04 335.62-335.04l1206.03 0c184.55 0 335.77 150.6 335.77 335.04l0 503.97c0 184.41-151.22 336.47-335.77 336.47zM26041.31 6827.56l-1206.02 0c-184.7 0-335.78-152.06-335.78-336.47l0-503.97c0-184.44 151.08-335.04 335.78-335.04l1206.02 0c184.55 0 335.59 150.6 335.59 335.04l0 503.97c0 184.41-151.04 336.47-335.59 336.47z"/><path fill-rule="nonzero" d="M22333.95 5746.38c-133.29 0-241.7 108.41-241.7 240.74l0 503.97c0 133.73 108.41 242.14 241.7 242.14l1205.21 0c133.29 0 241.7-108.41 241.7-242.14l0-503.97c0-132.33-108.41-240.74-241.7-240.74l-1205.21 0zm1205.21 1175.48l-1205.21 0c-237.47 0-430.48-192.86-430.48-430.77l0-503.97c0-236.52 193.01-430.77 430.48-430.77l1205.21 0c237.33 0 430.48 194.25 430.48 430.77l0 503.97c0 237.91-193.15 430.77-430.48 430.77zM24835.54 5746.38c-133.17 0-241.55 108.41-241.55 240.74l0 503.97c0 133.73 108.38 242.14 241.55 242.14l1205.33 0c133.32 0 241.73-108.41 241.73-242.14l0-503.97c0-132.33-108.41-240.74-241.73-240.74l-1205.33 0zm1205.33 1175.48l-1205.33 0c-237.32 0-430.33-192.86-430.33-430.77l0-503.97c0-236.52 193.01-430.77 430.33-430.77l1205.33 0c237.36 0 430.51 194.25 430.51 430.77l0 503.97c0 237.91-193.15 430.77-430.51 430.77z"/><polygon fill-rule="nonzero" points="23969.63 6260.2 24499.58 6260.2 24499.58 6071.42 23969.63 6071.42"/><polygon fill-rule="nonzero" points="26804.73 6265.86 26361.13 6285.56 26392.81 6099.72 26825.86 6087.08"/><polygon fill-rule="nonzero" points="21595.74 6265.86 22039.44 6285.56 22007.66 6099.72 21556.31 6087.08"/><path fill-rule="nonzero" d="M23135.7 6213.75c0 98.56-79.97 177.39-178.53 177.39-98.52 0-178.34-78.83-178.34-177.39 0-98.52 79.82-178.78 178.34-178.78 98.56 0 178.53 80.26 178.53 178.78zM25616.71 6213.75c0 98.56-79.82 177.39-178.34 177.39-98.56 0-178.53-78.83-178.53-177.39 0-98.52 79.97-178.78 178.53-178.78 98.52 0 178.34 80.26 178.34 178.78zM25094.59 8971.57c0 294.24-241.15 536.38-535.95 536.38l-712.19 0c-294.65 0-535.8-242.14-535.8-536.38l0-487.07c0-295.65 535.8-536.35 535.8-536.35l712.19 0c0 0 535.95 240.7 535.95 536.35l0 487.07zm-445-1331.75l-893.95 0c0 0-849.56 381.53-849.56 848.9l0 954.44c0 467.41 382.19 850.3 849.56 850.3l893.95 0c467.23 0 849.6-382.89 849.6-850.3l0-954.44c0-467.37-849.6-848.9-849.6-848.9z"/><path fill="#fff" fill-rule="nonzero" d="M24868.62 8342.32c0,0 -299.29,488.5 -668.69,488.5 -369.25,0 -668.68,-488.5 -668.68,-488.5l1337.37 0z"/><path fill="#1e7dac" fill-rule="nonzero" d="M24188.69 3976.81c1224.32,0 1546.83,637.74 2668.55,1448.6 113.48,-308.28 109.51,-2194.71 -403.76,-2709.97 -514.81,-515.22 -1784.89,-960.06 -2264.79,-960.06 -479.76,0 -1779.56,457.52 -2296.77,993.87 -494.41,511.03 -485.12,2363.65 -371.67,2670.54 977.85,-836.22 1444.23,-1442.98 2668.44,-1442.98z"/><path fill="#18658c" fill-rule="nonzero" d="M24196.7 3851.53c-3.38,0 -6.61,0 -9.99,0 -3.24,0 -6.47,0 -9.85,0 -1470.84,0 -2074.77,871.39 -2663.08,1568.26 1059.76,299.83 1305.87,-1310.65 2634.93,-1328.95 0,0 25.46,0 38,0 12.82,0 38.14,0 38.14,0 1329.1,18.3 1575.17,1628.78 2634.93,1328.95 -588.46,-696.87 -1192.24,-1568.26 -2663.08,-1568.26z"/><path fill="#1e7dac" fill-rule="nonzero" d="M24407.46 1837l-441.21 0c-74.6,0 -135.86,-60.53 -135.86,-135.13l0 0c0,-74.6 61.26,-135.16 135.86,-135.16l441.21 0c74.6,0 135.71,60.56 135.71,135.16l0 0c0,74.6 -61.11,135.13 -135.71,135.13z"/><polygon fill="#132e42" fill-rule="nonzero" points="22222.6 24373.95 22559.44 24373.95 22559.44 23421.83 22222.6 23421.83"/><path fill="#1e7dac" fill-rule="nonzero" d="M28233.49 11490.07c-253.83,-84.48 -2952.66,-344.88 -2952.66,-344.88l-1101.29 3426.49 -1072.88 -3426.49c0,0 -2691.34,260.4 -2945.17,344.88 300.68,282.97 340.67,1002.33 304.51,1845.57 -44.91,1037.53 -20.29,10086.67 -20.29,10086.67l7507.49 0c0,0 20.84,-9049.14 -24.07,-10086.67 -36.49,-843.24 3.49,-1562.6 304.36,-1845.57z"/><polygon fill="#0f5070" fill-rule="nonzero" points="24179.54 14571.68 23035.89 10698.91 23151.57 12721.86"/><polygon fill="#155f84" fill-rule="nonzero" points="22015.12 13284.96 23151.57 12721.86 23035.89 10698.91 22159.54 11239.48"/><polygon fill="#0f5070" fill-rule="nonzero" points="24179.54 14571.68 25322.91 10698.91 25207.33 12721.86"/><polygon fill="#155f84" fill-rule="nonzero" points="26343.68 13284.96 25207.33 12721.86 25322.91 10698.91 26199.4 11239.48"/><polygon fill="#155f84" fill-rule="nonzero" points="23466.07 15443.07 22268.65 15710.57 21071.04 15443.07 21071.04 14767.34 23466.07 14767.34"/><path fill="#fff" fill-rule="nonzero" d="M22394.36 15364.25c0,68.97 -56.33,125.27 -125.71,125.27 -69.57,0 -125.87,-56.3 -125.87,-125.27 0,-68.98 56.3,-125.28 125.87,-125.28 69.38,0 125.71,56.3 125.71,125.28z"/><polygon fill="#fff" fill-rule="nonzero" points="27277.76 15897.8 24882.84 15897.8 24882.84 14594.21 27277.76 14594.21"/><polygon fill="#bdbdbd" fill-rule="nonzero" points="25960.5 14595.61 25960.5 14423.84 25869.4 14595.61"/><polygon fill="#d9d9d9" fill-rule="nonzero" points="25960.5 14765.94 26200.21 14765.94 26200.21 14424.06 25960.5 14424.06"/><polygon fill="#d9d9d9" fill-rule="nonzero" points="25869.4 15174.18 27054.18 15174.18 27054.18 15064.01 25869.4 15064.01"/><polygon fill="#d9d9d9" fill-rule="nonzero" points="25869.4 15535.97 27054.18 15535.97 27054.18 15425.69 25869.4 15425.69"/><polygon fill="#d9d9d9" fill-rule="nonzero" points="25052.21 15680.98 25775.5 15680.98 25775.5 14922.49 25052.21 14922.49"/><polygon fill="#0a4f6f" fill-rule="nonzero" points="20516.24 42945.19 23374.31 42945.19 23298.13 44486.7 20448.11 44486.7"/><polygon fill="#0a4f6f" fill-rule="nonzero" points="25022.63 42945.19 27855.64 42945.19 27941.52 44486.7 25091.35 44486.7"/><path fill="#0a4f6f" fill-rule="nonzero" d="M28066.39 26748.84c-36.49-4.22-920.82-119.65-1441.58-971.34-403.32-658.84-363.74-1372.57-361.65-1403.55l262.43 0c-.45 7.02-46.6 684.15 313.5 1272.61 455.69 744.72 1211.24 847.47 1219.11 848.9l8.19 253.38zM20330.84 26748.84c36.61-4.22 920.82-119.65 1441.7-971.34 403.32-658.84 363.63-1372.57 361.64-1403.55l-262.53 0c.44 7.02 46.74 684.15-313.51 1272.61-455.68 744.72-1211.24 847.47-1218.99 848.9l-8.31 253.38zM24409.15 27172.59c-200.06 0-540.18-30.98-790.18-221.04-288.59-218.18-251.03-1879.37-222.29-2577.6l247.06 2.79c-41.82 1024.85-3.23 2238.37 129.36 2376.33 201.6 153.43 498.64 170.33 660.41 168.93l0-2545.26 251.4 0 0 2774.72-110.91 14.08c-7.61 0-70.81 7.05-164.85 7.05z"/><polygon fill="#d6b792" fill-rule="nonzero" points="23778.87 24469.68 24001.2 24469.68 24001.2 23327.79 23778.87 23327.79"/><polygon fill="#d6b792" fill-rule="nonzero" points="23969.08 24469.68 24635.85 24469.68 24635.85 24375.79 23969.08 24375.79"/><polygon fill="#9d764b" fill-rule="nonzero" points="23843.36 23947.41 24227.24 23947.41 24227.24 23840.65 23843.36 23840.65"/><polygon fill="#d6b792" fill-rule="nonzero" points="23969.08 23422.31 24635.85 23422.31 24635.85 23328.6 23969.08 23328.6"/><path fill="#815932" fill-rule="nonzero" d="M35084.1 22374.93c0 0-136.12 149.2-487.51 95.73-364.33-56.33-397.99-195.68-397.99-195.68 0 0-263.09 230.85-550.98 240.7-287.74 8.45-505.55-271.68-505.55-271.68l273.55-418.1 1158.88 156.26 509.6 392.77zM14237.63 18749.92c0 0-1236.31-122.49-1613.46-437.83-377.26-313.91-440.21-591.25-440.21-591.25l1864.45 0 189.22 1029.08z"/><polygon fill="#155f84" fill-rule="nonzero" points="14048.41 17720.84 14971.06 17720.84 15180.13 19030.05 14237.63 18941.38"/><polygon fill="#cf9e5f" fill-rule="nonzero" points="10131.17 17723.67 18024.01 17723.67 18024.01 12635.13 10131.17 12635.13"/><polygon fill="#9d764b" fill-rule="nonzero" points="13018.78 16130.06 13256.77 16130.06 13256.77 14443.65 13018.78 14443.65"/><polygon fill="#9d764b" fill-rule="nonzero" points="12520.69 14815.22 13137.74 13746.71 13754.75 14815.22"/><polygon fill="#9d764b" fill-rule="nonzero" points="14646.72 16130.06 14884.7 16130.06 14884.7 14443.65 14646.72 14443.65"/><polygon fill="#9d764b" fill-rule="nonzero" points="14148.77 14815.22 14765.67 13746.71 15382.83 14815.22"/><polygon fill="#9d764b" fill-rule="nonzero" points="12520.69 16493.28 15382.83 16493.28 15382.83 16314.87 12520.69 16314.87"/><polygon fill="#d6b792" fill-rule="nonzero" points="9072.36 12641.64 16965.27 12641.64 16965.27 11476.48 9072.36 11476.48"/><polygon fill="#cf9e5f" fill-rule="nonzero" points="10652.6 11483.02 18545.47 11483.02 18545.47 10317.9 10652.6 10317.9"/></svg>